<?xml version="1.0" encoding="utf-8"?>
<!-- Generator: Adobe Illustrator 17.0.0, SVG Export Plug-In . SVG Version: 6.00 Build 0)  -->
<!DOCTYPE svg PUBLIC "-//W3C//DTD SVG 1.1//EN" "http://www.w3.org/Graphics/SVG/1.1/DTD/svg11.dtd">
<svg version="1.1" id="Ebene_1" xmlns="http://www.w3.org/2000/svg" xmlns:xlink="http://www.w3.org/1999/xlink" x="0px" y="0px"
	 width="163.889px" height="164.583px" viewBox="0 0 163.889 164.583" enable-background="new 0 0 163.889 164.583"
	 xml:space="preserve" preserveAspectRatio="none">
<g>
	<path fill="#FFFFFF" d="M99.013,108.022c-0.013-0.002-0.025-0.006-0.037-0.012c-1.503-0.781-2.993-1.713-4.433-2.613
		c-1.785-1.117-3.631-2.27-5.518-3.146l-1.378-0.127c-2.132,1.084-1.573,3.065-0.981,5.162c0.321,1.133,0.652,2.307,0.535,3.344
		c0.105,1.084,0.028,2.137-0.045,3.154c-0.086,1.207-0.168,2.348,0.026,3.529l0.046,0.096c0.338,0.711,0.759,1.598,1.568,1.811
		c0.392,0.088,0.81,0.117,1.234,0.09c0.922-0.061,1.785-0.387,2.434-0.916c0.009-0.006,0.018-0.014,0.027-0.02
		c1.17-0.586,2.193-1.734,3.184-2.846c1.383-1.551,2.812-3.154,4.678-3.277c0.495-0.031,1.009,0.041,1.531,0.221
		c0.031-0.402-0.115-0.746-0.27-1.105c-0.095-0.221-0.191-0.449-0.25-0.697c-1.438,0.07-2.881,0.178-4.322,0.283
		c-0.83,0.062-1.66,0.123-2.487,0.178c-1.435,0.094-3.323,0.199-5.202,0.178c-0.049,0-0.096-0.025-0.122-0.066
		c-0.481-0.73-0.457-1.408,0.071-1.861c0.023-0.021,0.059-0.035,0.087-0.035l11.761-0.693l0.691-0.791l-1.143-14
		c-0.003-0.039,0.01-0.08,0.037-0.109l0.352-0.4c0.013-0.016,0.026-0.027,0.043-0.035c0.136-0.068,0.275-0.109,0.416-0.117
		c0.466-0.031,0.838,0.264,1.07,0.516c0.024,0.025,0.036,0.059,0.038,0.092l0.835,13.885l0.577,0.691l11.292-0.738
		c0.035-0.004,0.069,0.006,0.098,0.027l0.476,0.348c0.182,0.131,0.291,0.314,0.315,0.525c0.034,0.318-0.125,0.715-0.429,1.06
		c-0.024,0.029-0.062,0.047-0.101,0.051l-11.467,0.9c-0.047,0.242-0.133,0.465-0.215,0.68c-0.15,0.387-0.293,0.756-0.193,1.209
		l1.257-0.418c0.012-0.004,0.024-0.008,0.037-0.008c0.018-0.002,0.034,0,0.052,0.006c1.971,0.58,3.684,1.941,5.339,3.258
		c1.54,1.225,3.134,2.494,4.912,3.1c0.332,0.141,0.713,0.199,1.114,0.174c0.697-0.047,1.349-0.334,1.787-0.789
		c0.676-1.039,0.344-2.312,0.021-3.543c-0.138-0.531-0.27-1.031-0.324-1.52c-0.787-2.322-0.541-4.637-0.303-6.875
		c0.163-1.539,0.318-2.992,0.165-4.453c-0.298-0.705-1.026-1.145-1.821-1.092c-0.138,0.008-0.275,0.033-0.41,0.07
		c-2.03,0.754-3.627,2.481-5.17,4.148c-1.054,1.141-2.143,2.318-3.375,3.197c-0.01,0.008-0.021,0.014-0.033,0.018
		c-0.283,0.107-0.569,0.174-0.852,0.191c-0.765,0.049-1.455-0.229-1.992-0.809c-0.015-0.016-0.024-0.031-0.031-0.049
		c-0.766-2.066,0.555-3.744,1.832-5.367c0.477-0.605,0.927-1.178,1.272-1.766c0.41-0.664,0.899-1.315,1.371-1.943
		c1.563-2.082,3.039-4.049,2.209-6.621c-0.713-1.129-2.06-1.217-2.8-1.17c-0.096,0.008-0.19,0.016-0.285,0.027
		c-1.631,0.594-3.557,0.977-5.566,1.109c-1.658,0.107-3.315,0.037-4.793-0.207c-0.236,0.004-0.522-0.014-0.826-0.031
		c-0.452-0.027-0.92-0.057-1.373-0.027c-0.889,0.059-1.469,0.336-1.828,0.875c-1.928,3.646,0.912,6.254,3.656,8.777
		c1.006,0.924,1.957,1.797,2.696,2.727c0.171,0.217,0.376,0.428,0.574,0.631c0.676,0.697,1.375,1.418,1.007,2.508
		c-0.259,0.684-0.865,1.432-1.802,1.492C99.383,108.077,99.198,108.063,99.013,108.022"/>
	<path fill="#FFFFFF" d="M73.424,67.093C73.427,67.105,73.514,67.012,73.424,67.093"/>
	<path fill="#FFFFFF" d="M86.346,100.864c0.52-0.203,1.027-0.316,1.535-0.35c2.099-0.139,3.97,1.104,5.779,2.305
		c0.893,0.592,1.815,1.205,2.734,1.623c0.405,0.184,0.809,0.496,1.198,0.799c0.595,0.461,1.211,0.939,1.784,0.902
		c0.093-0.006,0.183-0.025,0.271-0.059l-0.298-0.729c-0.86-1.024-1.951-2.024-3.006-2.992c-3.147-2.885-6.403-5.869-4.981-10.367
		c0.447-0.852,1.375-2.275,2.674-2.537c0.01-0.002,0.023-0.004,0.035-0.002c0.398,0.014,0.801,0.029,1.207,0.047
		c2.318,0.09,4.715,0.184,7.057,0.031c2.082-0.137,3.844-0.455,5.386-0.969c0.014-0.006,0.028-0.008,0.045-0.008l0.293-0.004
		c1.271-0.018,2.472-0.033,3.407,0.787c1.023,0.973,1.471,2.107,1.412,3.582c-0.043,2.184-1.328,3.951-2.57,5.66
		c-0.289,0.398-0.589,0.81-0.865,1.217l-3.849,5.846c-0.05,0.072-0.067,0.133-0.056,0.189c0.029,0.154,0.262,0.311,0.444,0.428
		c1.329-0.83,2.486-2.08,3.606-3.289c1.527-1.65,3.105-3.355,5.16-4.059c0.416-0.18,0.891-0.295,1.363-0.324
		c0.733-0.049,1.424,0.105,1.944,0.434c2.339,2.131,1.895,4.533,1.425,7.078c-0.354,1.914-0.72,3.893,0.152,5.815
		c0.005,0.012,0.009,0.025,0.011,0.037c0.071,0.459,0.171,0.934,0.276,1.434c0.474,2.23,1.01,4.758-1.207,6.254
		c-0.676,0.287-1.336,0.445-1.985,0.488c-2.774,0.182-5.144-1.746-7.435-3.609c-1.209-0.984-2.461-2.002-3.736-2.672
		c-0.144-0.051-0.305-0.076-0.457-0.066c-0.471,0.031-0.812,0.391-1.021,0.701c-0.261,4.527,0.656,7.729,2.801,9.787
		c0.031,0.029,0.048,0.072,0.047,0.113c-0.032,0.691-0.419,1.314-0.762,1.863l-0.045,0.074c-0.021,0.035-0.057,0.059-0.096,0.068
		c-0.007,0-0.014,0.002-0.021,0.002c-0.032,0.002-0.065-0.006-0.092-0.025c-2.93-1.998-3.273-5.521-3.605-8.93
		c-0.086-0.887-0.176-1.805-0.311-2.676c-0.529-0.746-1.41-1.107-2.111-0.834c-0.905,0.715-1.768,1.598-2.684,2.531
		c-2.086,2.131-4.244,4.334-6.983,4.514c-0.89,0.059-1.81-0.105-2.735-0.488c-2.473-1.559-2.283-4.104-2.099-6.566
		c0.084-1.117,0.17-2.271,0.007-3.318c0.004-0.959-0.234-1.98-0.486-3.061C84.313,105.018,83.703,102.409,86.346,100.864
		 M121.01,127.641c0.201-0.014,0.4-0.027,0.597-0.041c1.545-3.982,5.474-19.436,5.313-30.248
		c-7.379-6.16-25.846-17.277-40.62-21.715c-5.57,11.137-7.866,22.852-7.018,35.799c0.312,4.754,1.069,9.838,2.25,15.115
		C89.879,127.237,109.938,128.368,121.01,127.641"/>
	<path fill="#FFFFFF" d="M102.792,110.172c0.133-0.164,0.228-0.326,0.282-0.484c-0.018-0.016-0.036-0.033-0.055-0.053
		c-0.086-0.084-0.174-0.17-0.269-0.223l-0.274,0.477c0.059,0.047,0.108,0.098,0.154,0.145
		C102.688,110.09,102.736,110.139,102.792,110.172"/>
	<path fill="#FFFFFF" d="M72.73,117.422c-0.93-0.73-2.171-1.086-3.494-1c-1.598,0.105-3.16,0.836-4.179,1.953
		c-1.782,2.111-2.148,4.738-2.076,6.81c0.311-0.863,0.802-1.635,1.423-2.225c0.631-0.463,1.393-0.75,2.108-0.797
		c0.362-0.023,0.705,0.014,1.019,0.113c1.195,0.148,1.909,1.055,2.599,1.93c0.636,0.809,1.239,1.574,2.178,1.596
		c-0.275-1.797,0.309-3.387,1.273-5.203C73.784,119.551,73.666,118.172,72.73,117.422"/>
	<path fill="#FFFFFF" d="M75.386,119.557c0.038,1.023-0.368,2.006-0.76,2.957c-0.644,1.557-1.251,3.027,0.155,4.471
		c0.038,0.039,0.051,0.098,0.034,0.15c-0.017,0.051-0.061,0.09-0.115,0.1c-0.156,0.027-0.313,0.055-0.471,0.084
		c-0.537,0.098-1.092,0.199-1.64,0.234c-0.918,0.061-1.628-0.078-2.231-0.438c-0.016-0.01-0.029-0.02-0.04-0.033
		c-0.162-0.203-0.326-0.42-0.494-0.644c-0.917-1.215-1.955-2.592-3.433-2.496c-0.156,0.01-0.317,0.037-0.478,0.08
		c-0.51,0.393-1.104,0.932-1.299,1.664c0.15,0.186,0.353,0.34,0.567,0.502c0.362,0.275,0.773,0.586,0.957,1.119
		c0.305,0.889,0.014,1.711-0.311,2.398c-0.489,0.824-1.27,0.982-2.042,1.033c-0.168,0.012-0.339,0.018-0.508,0.021
		c-0.346,0.012-0.695,0.031-0.952,0.072c-0.029,0.127-0.013,0.252,0.047,0.379c0.165,0.35,0.641,0.648,1.039,0.789
		c0.62,0.271,1.321,0.406,1.999,0.535c1.308,0.248,2.661,0.508,3.512,1.734c0.765,1.527,0.664,3.537-0.228,4.795
		c-0.031,0.043-0.081,0.066-0.134,0.062c-0.683-0.062-1.489-0.119-2.293-0.066c-0.694,0.047-1.306,0.166-1.866,0.369
		c0.449,1.256,0.9,3.016,0.072,4.365c-0.602,0.971-1.408,1.654-2.188,2.316c-0.567,0.482-1.153,0.979-1.651,1.58
		c-0.026,0.031-0.064,0.051-0.104,0.055c-0.001,0-0.002,0-0.004,0c-0.042,0.002-0.082-0.016-0.112-0.045
		c-0.534-0.549-1.247-1.041-1.938-1.514c-1.749-1.201-3.557-2.441-3.046-4.875l0.334-1.109c-1.23-0.4-2.99-0.365-4.143,0.105
		c-0.052,0.021-0.111,0.012-0.153-0.027c-1.189-1.041-1.595-3.344-0.886-5.025c0.759-1.213,1.972-1.586,3.146-1.949
		c1.158-0.357,2.254-0.695,2.946-1.76l-0.018-0.279c-0.345-0.027-0.71-0.006-1.064,0.014c-0.877,0.053-1.784,0.106-2.487-0.56
		c-0.009-0.008-0.016-0.018-0.023-0.027l-0.047-0.074c-0.417-0.645-0.888-1.373-0.66-2.309c-0.134-0.637,0.39-0.998,0.812-1.289
		c0.277-0.191,0.539-0.371,0.547-0.568c0.007-0.152-0.131-0.348-0.41-0.578c-0.46-0.502-1.062-1.057-1.755-1.012
		c-0.163,0.012-0.328,0.055-0.492,0.129c-1.008,0.422-1.57,1.342-2.113,2.23c-0.639,1.047-1.3,2.129-2.673,2.219
		c-0.348,0.023-0.736-0.02-1.153-0.125c-0.383-0.037-0.773-0.188-1.209-0.473c-0.065-0.043-0.086-0.129-0.047-0.197
		c1.003-1.742,0.174-3.139-0.704-4.619c-0.946-1.596-1.925-3.246-0.389-5.303c1.65-1.883,3.808-2.781,6.166-2.572
		c2.929,0.268,5.692,2.314,6.877,5.09c0.495,1.082,0.742,2.297,0.981,3.471c0.088,0.428,0.178,0.869,0.279,1.297
		c0.266-4.322-1.933-7.684-4.06-10.934c-0.165-0.25-0.329-0.502-0.492-0.754c-2.346-4.354,0.013-8.012,2.294-11.551
		c0.86-1.334,1.749-2.713,2.348-4.09c0.022-0.049,0.071-0.084,0.125-0.088c0.063,0.002,0.108,0.021,0.137,0.07
		c0.774,1.244,1.807,2.443,2.806,3.602c2.409,2.795,4.9,5.684,4.355,9.713c-0.401,1.449-1.019,2.846-1.616,4.197
		c-1.271,2.875-2.583,5.842-1.83,9.271c0.058-0.336,0.064-0.719,0.07-1.115c0.008-0.551,0.017-1.119,0.166-1.641
		c0.372-2.928,2.288-6.443,5.721-7.648c0.586-0.174,1.181-0.279,1.775-0.318c1.88-0.125,3.69,0.432,5.099,1.564
		C74.841,116.971,75.285,118.01,75.386,119.557 M74.655,96.676c-0.998,0.047-1.989,0.104-2.952,0.168
		c-14.572,0.955-25.032,3.582-37.075,7.512c1.618,5.271,2.66,9.488,3.501,12.895c2.455,9.941,4.081,16.527,14.706,33.203
		c6.351-1.311,19.756-6.391,27.247-11.705c-2.932-8.432-4.583-16.699-5.192-25.986C74.531,107.276,74.56,101.799,74.655,96.676"/>
	<path fill="#FFFFFF" d="M62.145,138.352l0.196-0.066c1.263-0.42,2.569-0.855,3.973-0.947c0.439-0.027,0.871-0.021,1.286,0.021
		c0.147-0.861,0.238-2.002-0.378-2.629c-0.618-0.238-1.328-0.375-2.08-0.521c-2.021-0.395-4.109-0.801-4.556-3.176l-2.221,0.146
		c-0.16,2.314-1.972,2.99-3.725,3.645c-0.94,0.352-1.829,0.684-2.477,1.25c-0.344,0.623-0.23,1.617,0.06,2.297
		c0.389-0.092,0.796-0.15,1.213-0.178c1.619-0.107,3.18,0.279,4.434,0.59c0.079,0.02,0.127,0.1,0.108,0.178
		c-0.1,0.416-0.26,0.801-0.415,1.172c-0.314,0.754-0.61,1.465-0.406,2.369c0.39,1.217,1.697,1.965,2.851,2.623
		c0.151,0.086,0.298,0.17,0.441,0.254c0.095-0.076,0.191-0.154,0.288-0.232c0.909-0.732,1.85-1.488,2.429-2.564
		c0.288-0.895-0.13-1.738-0.535-2.555c-0.243-0.49-0.494-0.994-0.585-1.51C62.033,138.446,62.075,138.374,62.145,138.352"/>
	<path fill="#FFFFFF" d="M142.393,130.352c0.016,0.244-0.171,0.455-0.414,0.473l-60.915,3.992c-0.191,0.012-0.362-0.102-0.435-0.275
		c0.426,1.396,0.892,2.812,1.403,4.252l0.116,0.33c0.065,0.184,0.002,0.389-0.154,0.504l-0.281,0.207
		c-7.816,5.781-22.721,11.377-29.15,12.541l-0.31,0.057c-0.017,0.004-0.034,0.006-0.051,0.006c-0.16,0.012-0.316-0.064-0.403-0.203
		l-0.17-0.268c-11.088-17.312-12.755-24.062-15.277-34.281l-0.009-0.035c-0.939-3.795-2.003-8.098-3.726-13.615l-0.138-0.443
		c-0.073-0.23,0.054-0.477,0.284-0.553l0.441-0.146c12.556-4.135,23.353-6.896,38.361-7.881c1.292-0.084,2.631-0.156,3.98-0.215
		l0.502-0.021c0.122-0.006,0.242,0.039,0.33,0.125c0.087,0.086,0.136,0.203,0.133,0.326l-0.01,0.502
		c-0.257,12.627-0.111,24.334,3.839,37.832c-0.034-0.127-0.01-0.264,0.066-0.371c0.077-0.109,0.2-0.178,0.333-0.186l59.736-3.916
		l-2.545-38.838L123,91.229c-0.1,0.008-0.198-0.019-0.28-0.074c-0.415-0.285-0.839-0.57-1.274-0.859
		c-0.157-0.105-0.23-0.301-0.182-0.484c0.049-0.184,0.21-0.314,0.4-0.328l17.529-1.148c0.244-0.018,0.455,0.168,0.472,0.414
		L142.393,130.352z M42.693,137.135c-0.074,0.127-0.207,0.209-0.354,0.219l-16.737,1.098c-0.244,0.016-0.455-0.168-0.472-0.414
		l-2.726-41.604c-0.016-0.246,0.169-0.457,0.413-0.473l54.459-3.57c0.136-0.008,0.268,0.047,0.359,0.148
		c0.091,0.1,0.131,0.238,0.107,0.373c-0.055,0.314-0.108,0.631-0.159,0.947c-0.033,0.205-0.202,0.359-0.409,0.373l-52.853,3.465
		l2.545,38.838l14.981-0.982c0.183-0.012,0.354,0.088,0.431,0.254c0.14,0.301,0.284,0.605,0.432,0.912
		C42.774,136.852,42.767,137.008,42.693,137.135 M69.519,77.94c-0.043-0.907,0.243-0.812,1.281,0.701c0,0,1.453,3.89,3.907,3.629
		c2.453-0.259,2.907,0.814,4.579-2.883c0.691-1.527,0.142-2.347,0.142-2.347s0.81,1.05,0.446,3.408
		c-0.33,2.139-1.46,2.436-2.113,3.213c-1.766,2.104-4.424,0.512-5.151-0.033c-0.728-0.547-1.434-0.795-2.201-1.93
		C69.643,80.562,69.585,79.319,69.519,77.94 M67.081,9.927c0.218-0.146,0.437-0.292,0.656-0.437
		c1.846-1.155,2.085,0.312,3.963-0.814c0.111,1.151,0.048,2.294-0.036,3.438c-0.006,0.005-0.012,0.008-0.018,0.014
		c-1.469,1.292-0.509,0.757-1.802,2.206c-0.857,0.96-1.773,1.882-2.531,2.914c-0.122,0.112-0.246,0.223-0.369,0.335
		c-0.283-2.257-0.593-4.51-0.928-6.761C66.349,10.496,66.705,10.198,67.081,9.927 M72.005,21.268
		c-2.173,2.495-2.354,2.925-4.005,5.811c-0.211-2.139-0.437-4.274-0.684-6.408c0.301-0.025,0.583-0.198,0.74-0.576
		c0.664-1.6-0.041-0.621,1.12-1.872c0.344-0.371,0.662-0.768,0.97-1.173c0.445-0.345,0.908-0.661,1.389-0.946
		C71.602,17.83,71.78,19.553,72.005,21.268 M70.715,35.451c-1.067,1.449-0.606,0.326-1.832,1.64
		c-0.169-2.155-0.351-4.309-0.546-6.461c0.152-0.092,0.286-0.232,0.381-0.438c0.63-1.359,1.376-2.654,2.201-3.9
		c1.037-1.438,0.207-0.627,1.569-1.653c0.277,1.839,0.565,3.672,0.831,5.507C72.545,31.954,71.885,33.861,70.715,35.451
		 M73.845,34.183c0.151,1.336,0.275,2.678,0.355,4.028c0.058,0.992,0.108,1.985,0.155,2.978c-0.008,0.008-0.016,0.012-0.023,0.019
		c-2.53,2.137-2.499,2.648-4.783,5.023c-0.121-1.801-0.249-3.601-0.381-5.399c0.874-1.255,1.747-2.51,2.631-3.757
		c0.935-0.887-0.045,0.444,0.724-0.599C73.047,35.764,73.468,34.985,73.845,34.183 M70.166,55.771
		c-0.129-2.057-0.259-4.113-0.393-6.171c0.211-0.492,0.45-0.964,0.714-1.415c0.073-0.045,0.145-0.098,0.213-0.165
		c2.014-2.012,1.734-2.18,3.77-4.166c0.089,2.264,0.159,4.528,0.227,6.792c-0.26,0.057-0.504,0.214-0.67,0.51
		C72.546,53.777,72.077,53.475,70.166,55.771 M70.939,58.132c0.011-0.016,0.023-0.032,0.034-0.048
		c2.241-1.616,2.252-1.701,3.827-4.039c0.072,2.392,0.008,4.839,0.477,7.191c0.037,0.183,0.076,0.365,0.117,0.548
		c-0.173,0.084-0.33,0.221-0.448,0.429c-1.324,2.347-1.792,1.589-3.365,3.748c-0.023,0.063-0.052,0.128-0.097,0.192
		c-0.025,0.034-0.057,0.057-0.091,0.073c-0.017,0.025-0.036,0.049-0.053,0.075c-0.005-0.018-0.008-0.036-0.012-0.053
		c-0.14,0.024-0.304-0.056-0.346-0.193c-0.065-0.209-0.11-0.427-0.124-0.645c-0.132-0.425-0.173-0.887-0.165-1.321
		c-0.119-1.838-0.235-3.677-0.351-5.515C70.569,58.507,70.781,58.37,70.939,58.132 M76.775,68.467
		c0.012,0.352,0.295,0.981,0.24,1.086l0.037,0.554c-0.032-0.006,0.061,0.704,0.137,1.065c-0.104,0.062-0.206,0.127-0.307,0.193
		c-0.198,0.032-0.832,0.565-0.964,0.702c-1.287,1.041-0.464,0.111-1.646,1.297c-0.296,0.209-0.602,0.394-0.92,0.554
		c-0.077-0.016-0.151-0.052-0.197-0.118c-0.015-0.02-0.028-0.045-0.043-0.067c-0.076,0.157-0.287,0.228-0.457,0.101
		c-0.947-0.706-1.354-1.992-1.116-3.13c-0.029-0.514,0.108-1.027,0.562-1.552c0.008-0.01,0.018-0.012,0.026-0.02
		c0.02-0.124,0.046-0.248,0.083-0.374c0.018-0.064,0.054-0.107,0.095-0.143c-0.02-0.059-0.042-0.118-0.063-0.178
		c0.202-0.08,0.383-0.232,0.512-0.478c0.086-0.166,0.179-0.327,0.276-0.484c0.229-0.228,0.341-0.335,0.394-0.383
		c-0.003-0.011,0.059-0.103,0.368-0.475c0.786-0.749,1.573-1.499,2.239-2.351C76.395,65.644,76.726,67.022,76.775,68.467
		 M77.638,74.224c0.198,0.39-0.118,1.195,0.006,1.818c0.018,0.089,0.08,1.869,0.05,2.044c-0.23,1.324-1.791,1.46-3.147,1.756
		c-1.411,0.308-1.077-1.14-1.885-2.263c-0.296-0.413-0.467-0.859-0.576-1.319c0.066-0.014,0.135-0.033,0.206-0.066
		c2.284-1.026,3.26-1.682,4.995-3.442C77.609,72.918,77.539,73.438,77.638,74.224 M85.006,74.115l0.176-0.345
		c0.098-0.188,0.314-0.282,0.518-0.224l0.373,0.107c15.428,4.44,34.834,16.163,42.352,22.567l0.161,0.139
		c0.095,0.082,0.151,0.199,0.153,0.326l0.006,0.209c0.289,11.639-4.191,28.67-5.668,31.949l-0.111,0.254
		c-0.066,0.148-0.208,0.248-0.37,0.26l-0.278,0.023c-0.377,0.031-0.769,0.059-1.172,0.086c-11.464,0.752-32.572-0.473-40.442-1.148
		l-0.343-0.029c-0.193-0.016-0.353-0.154-0.396-0.344l-0.076-0.336C75.18,107.09,76.806,90.09,85.006,74.115 M155.538,140.68
		c-0.224-0.387-0.999,0.174-1.056-3.594c-0.006-0.406-0.512-4.254-0.391-4.777c0.355-1.543,1.178-6.635,1.083-7.607
		c-0.104-1.049-0.304-2.119-0.694-3.105c-0.504-1.275-6.732,0.17-7.053-0.945c0.301-0.424,7.248-1.076,7.342-1.473
		c0.387-1.629,0.297-2.885-1.326-4.061c-0.321-0.234-0.649-0.355-1.051-0.33c-11.5,0.725-8.451,0.164-7.969-0.758
		c0.425-0.094,6.577-0.621,7-0.648c0.425-0.027,0.854-0.031,1.275-0.088c0.893-0.119,1.9-1.004,1.381-2.287
		c-0.256-0.631-0.571-1.209-1.338-1.59c1.171-0.234,1.423-0.963,1.373-1.879c-0.021-0.4-0.248-4.303-0.385-5.162
		c-0.25-1.58-3.492-22.784-2.437-25.458c0.38-0.963,0.474-1.926,0.413-2.916c-0.191-3.071-1.559-5.601-3.659-7.781
		c-0.198-0.205-0.403-0.273-0.692-0.253c-2.949,0.209-14.937,0.529-15.709,0.58c-7.934,0.525-5.654,0.347-9.125,0.552
		c-0.588,0.035-40.724,2.678-41.498,2.67c-0.668-0.006-1.327,0.027-1.983,0.103c-0.26-1.21-0.607-2.403-0.922-3.604
		c-0.685-2.607-0.584-5.35-0.669-8.025c-0.168-5.254-0.302-10.51-0.599-15.759c-0.145-2.576-0.449-5.126-0.81-7.669
		c0.156-0.391,0.065-0.748-0.148-1.009c-0.314-2.133-0.659-4.264-0.978-6.404c-0.358-2.397-0.628-4.807-0.735-7.23
		c-0.111-2.53,0.459-5.029,0.135-7.556c-0.044-0.352-0.225-0.597-0.461-0.747c0.215-0.387,0.141-0.847-0.091-1.177
		c-0.071-0.135-0.178-0.24-0.31-0.297c-0.293-0.186-1.254-4.618-1.619-4.326c-2.433,1.95-3.691,0.559-6.187,2.374
		c-0.093-0.588-0.182-1.176-0.279-1.764c-0.216-1.305-1.699,3.228-1.481,4.544c0.187,1.128,0.365,2.258,0.536,3.388
		c-0.166,0.367-0.075,0.747,0.151,1.027c2.605,17.599,3.595,37.101,4.744,54.842c-0.592,0.104-3.212,0.696-3.807,0.733
		c-2.763,0.169-18.615,1.143-20.495,1.07c-2.454-0.096-1.251-0.077-2.455,0.008c-7.947,0.562-15.911,0.899-23.838,1.745
		c-0.188,0.02-0.377,0.032-0.564,0.063c-0.602,0.1-1.201,0.234-1.808,0.302c-0.681,0.077-3.823,0.729-4.481,0.8
		c-1.156,0.126-2.305,0.282-3.363,0.805c-0.262,0.13-0.492,0.325-0.728,0.485c0.509,1.492,0.653,2.944,0.613,4.421
		c-0.016,0.62,0.173,1.166,0.351,1.696c0.111,0.336,0.218,0.664,0.266,1c0.048,0.34,0.036,0.684-0.089,1.053
		c-0.533,1.57-0.714,3.467-0.753,5.105c-0.003,0.113-0.015,0.281,0.05,0.334c0.364,0.289,11.341-0.361,11.393-0.02
		c0.205,1.334-12.278,1.363-12.221,1.799c0.171,1.311,0.099,3.232,0.361,4.527c0.299,1.482,0.745,2.936,1.025,4.42
		c0.562,2.975,0.954,5.973,0.978,9.01c0.02,2.555-0.005,5.105-0.481,7.629c-0.116,0.609-0.136,1.223,0.071,1.824
		c0.087,0.254,0.179,0.496,0.572,0.496c-0.394,0.066-0.452,0.287-0.437,0.586c0.074,1.484,0.081,2.383,0.169,3.869
		c0.036,0.602,0.151,1.199,0.233,1.816c0.768,0.041,1.45,0.082,2.133,0.109c0.699,0.027,3.829,0.006,4.528,0.025
		c0.542,1.633-4.308,1.869-5.287,2.135c-0.974,0.262-1.573,0.975-1.525,1.949c0.071,1.416,0.092,2.25,0.289,3.654
		c0.304,2.162,0.344,4.334,0.451,6.506c0.109,2.211,0.052,4.424,0.656,6.607c0.669,2.422,0.166,4.91-0.006,6.674
		c-0.059,0.602,0.261,4.107,0.471,4.693c0.136,0.012,0.273,0.039,0.409,0.033c1.371-0.043,2.745-0.047,4.112-0.145
		c4.741-0.346,25.246-2.355,26.091-2.428c0.844-0.076,1.696-0.066,2.542-0.137c0.87-0.068,7.35-0.215,9.504-0.062
		c1.899,0.135,3.786,0.002,5.629-0.49c1.048-0.277,2.069-0.658,3.105-0.984c0.811-0.258,21.316-2.031,22.346-1.928
		c0.07,0.006,0.142,0.01,0.213,0.01c0.658-0.004,1.316-0.033,1.973-0.006c1.771,0.074,6.492,0.012,8.264,0.061
		c3.049,0.084,23.285-1.078,24.697-1.205c3.272-0.297,6.541-0.629,9.816-0.904c1.555-0.131,8.395-0.33,10.254-0.375
		c0.047,0,1.944-0.334,2.839,0.051c0.12,0.051,0.28,0.012,0.422,0.008c3.9-0.152,7.788-0.467,11.658-0.973
		c1.178-0.152,1.133-3.26,1.204-4.438c0.019-0.305-0.013-0.613-0.05-0.916C156.482,142.532,156.064,141.586,155.538,140.68"/>
	<path fill="#FFFFFF" d="M54.395,128.188l-0.287,0.328c-0.042,0.182-0.168,0.906,0.423,1.105l9.347-0.611l0.523-0.307
		c0.115-0.182,0.156-0.432,0.106-0.656c-0.029-0.133-0.102-0.311-0.279-0.428L54.395,128.188z"/>
	<path fill="#FFFFFF" d="M46.578,127.45c0.13-0.072,0.264-0.145,0.42-0.191c1.393-2.65,2.896-3.992,4.592-4.104
		c0.076-0.006,0.153-0.008,0.23-0.008c1.415,0.162,2.725,1.309,3.461,2.498c-0.245-1.939-0.947-3.758-2.135-5.539
		c-1.035-1.279-2.641-1.899-3.764-2.254c-1.766-0.172-3.448,0.309-4.7,1.344c-1.605,1.746-0.776,3.051,0.184,4.561
		c0.742,1.168,1.509,2.375,1.157,3.887C46.225,127.647,46.396,127.551,46.578,127.45"/>
	<path fill="#FFFFFF" d="M62.935,111.635c0.371-3.096-1.472-5.244-3.424-7.521c-0.694-0.809-1.409-1.643-2.005-2.516
		c-0.454,0.904-1.037,1.82-1.601,2.709c-1.861,2.928-3.786,5.955-1.789,9.32c2.602,3.779,4.93,7.59,4.785,12.533l0.572-0.039
		c-0.823-4.422,0.739-8.043,2.251-11.547C62.137,113.616,62.564,112.626,62.935,111.635"/>
</g>
</svg>
